<svg width="28" height="28" viewBox="0 0 28 28" fill="none" xmlns="http://www.w3.org/2000/svg">
<g clip-path="url(#clip0_8_791)">
<path d="M28 0H0V28H28V0ZM26.647 20.6796L23.5565 4.43642L7.31333 1.353H26.6399V20.6796H26.647ZM13.3235 14.6765L24.4252 25.2299L10.233 17.767L2.77009 3.57477L13.3235 14.6765ZM3.57477 2.77009L17.767 10.233L25.2299 24.4252L14.6765 13.3235L3.57477 2.77009ZM19.12 8.87996L5.0061 2.17192L22.2035 5.78942L25.821 22.9868L19.1129 8.87284L19.12 8.87996ZM8.87996 19.12L22.9939 25.8281L5.79654 22.2106L2.17192 5.0061L8.87996 19.12ZM1.353 7.31333L4.44354 23.5565L20.6867 26.647H1.353V7.31333Z" fill="#060606"/>
</g>
<defs>
<clipPath id="clip0_8_791">
<rect width="28" height="28" fill="white"/>
</clipPath>
</defs>
</svg>
