<svg width="28" height="28" viewBox="0 0 28 28" fill="none" xmlns="http://www.w3.org/2000/svg">
<g clip-path="url(#clip0_8_794)">
<path d="M28 14C28 11.6572 22.9013 9.71316 16.236 9.34999C22.9084 8.99394 28 7.04989 28 4.69994C28 2.10075 21.7335 -0.00708008 14 -0.00708008C6.26653 -0.00708008 0 2.10787 0 4.70706C0 7.04989 5.09868 8.99394 11.764 9.35711C5.09868 9.71316 0 11.6572 0 14C0 16.3429 5.09868 18.2869 11.764 18.6501C5.09156 19.0061 0 20.9502 0 23.3001C0 25.8993 6.26653 28.0072 14 28.0072C21.7335 28.0072 28 25.8993 28 23.3001C28 20.9573 22.9013 19.0133 16.236 18.6501C22.9084 18.294 28 16.35 28 14Z" fill="#060606"/>
</g>
<defs>
<clipPath id="clip0_8_794">
<rect width="28" height="28" fill="white"/>
</clipPath>
</defs>
</svg>
